<svg id="Layer_1" data-name="Layer 1" xmlns="http://www.w3.org/2000/svg" viewBox="0 0 256 256"><defs><style>.cls-1{fill:#039;}.cls-2{fill:#dadce0;}.cls-3{fill:#fff;}.cls-4{fill:#001f84;}</style></defs><rect class="cls-1" x="0.5" y="0.5" width="255" height="255"/><path d="M255,1V255H1V1H255m1-1H0V256H256V0Z"/><path class="cls-2" d="M137.55,12.79c7,2.3,14.63,2.42,21.2,6.19.26,2.24,1.78,2.6,3.71,2.74,1.52.11,3.33.41,3.78,2.24s-.73,3.43-2.11,4.48c-1.58,1.2-2.61,1.79-1.77,4.44,1.27,3.95-2.88,2.54-4.69,3.47-6.8-2.14-13.43-4.67-20.6-5.66C101,25.74,66.42,51.06,60.3,86.9a68,68,0,0,0,1.18,28.31c-2.25,2.25-4.64,4.29-8.1,4-2.27-.21-2.45,1.35-2.92,2.89-1.26,4-2.38.69-3.54-.11-16.71-39.26,10.4-95.56,62.35-107,3.14-.69,6.46-.59,9.4-2.13Z"/><path class="cls-3" d="M208,125.07C201.83,143,192.19,159.12,182.1,175a646.59,646.59,0,0,1-44.86,61.7,44.46,44.46,0,0,1-3.4,4c-3.43,3.31-8.66,3.54-11.66-.05-5.72-6.82-11-14-16.5-21,.73-3.25.61-7.46,6-5,1.08-2.6-1.33-3.33-1.72-4.92a3,3,0,0,1,1.27-3.66c1.51-.91,2.15.59,2.82,1.5,1,1.41,2.5,2.84,2.61,4.48.37,5.48,3.58,7,8.39,6.73,3,1.39,4.79-.29,6.56-2.53,8.23-10.37,16-21.05,23.62-31.89,12.19-17.42,23.69-35.25,32.66-54.61.72-1.56,1.44-3.21,3.22-4,2,0,3.34,1.86,5.32,2,1,.06,2.15.23,2.88-.73s.24-2-.37-2.85a21.74,21.74,0,0,1-1.94-2.45,3.06,3.06,0,0,1,0-3.45c1.22-1.57,2.07.15,3.09.47A13.43,13.43,0,0,1,208,125.07Z"/><path class="cls-2" d="M208,125.07c-3.94-1.37-5.67-6.3-10.7-5.59-.23.64.16,1.75,1.54,2.62,2.3,1.46,3.8,3.83,2.17,6.08s-4.47,1.29-6.71.43c-1.2-.47-2.12-1.67-3.16-2.54-.92-1.58-.26-3.06.35-4.49,7.25-16.81,6.49-33.59-.12-50.36a3.51,3.51,0,0,1-.13-1c1.13-5.12,5.3-6.27,9.57-7.21,2.09-.46,3.3.79,3.78,2.61.58,2.23,1.72,3.68,4.12,3.87C215.56,88.09,216.21,106.64,208,125.07Z"/><path class="cls-2" d="M124.81,219.42c-5.39,1.36-9,.69-9-6.27,0-2.22-2.45-4.43-3.79-6.67-2.48,1.94-.92,3.26.44,4.67,1,1.06,2.75,2,1.4,3.86a2.73,2.73,0,0,1-4.1.68c-2-1.49-2.49-.5-2.23,1.26s-.7,2.14-1.85,2.63a407.24,407.24,0,0,1-31.14-44.11c-.3-2.3,1.87-3,3-4.25,1.65-1.78,2.21-2.81,1.18-5.55-1.82-4.84,3.13-3.26,5.31-4.3,3.77,2,5.16,6.07,7.36,9.3q14.7,21.68,30.63,42.43C123.42,214.92,125.65,216.54,124.81,219.42Z"/><path class="cls-3" d="M84,161.74c-.89.52-1.79,1.5-2.65,1.47-3-.12-3.13,1.11-1.11,2.58,2.81,2.05,2.23,4-.23,5.05s-2.41,4.59-5.44,4.63C63.49,158.59,53.23,141.3,46.92,122c.74-.65,2.39,3.19,2.53-.52.11-3-.13-6,4.57-3.35,2.43,1.33,3.79-3.44,6.77-2.52,1.85.37,2.32,2,2.84,3.39,4.7,12.95,11.55,24.8,18.55,36.59C83.28,157.42,85,159.21,84,161.74Z"/><path class="cls-3" d="M208.71,69.46c-2.19,2.93-3.63,1.43-4.82-.87-.8-1.54.53-4.87-1.94-4.59s-5.5.59-7.49,2.83l-2.4,2.67c-2.08.2-2.55-1.56-3.23-2.84a66.27,66.27,0,0,0-27.67-28.15c-1.2-.64-2.51-1.29-2.63-2.94a5.72,5.72,0,0,1,1.55-1.23,6.73,6.73,0,0,1,2.23.13c-.95-2.47-6-5.39.75-6.54,1.08-.19,2.76-2.2,2.28-3.64-.58-1.72-2.16-1.67-4.2-1.27-2.42.48-3.42-1.57-2.39-4C183.05,28.24,199.58,45.19,208.71,69.46Z"/><path class="cls-3" d="M147.56,86.82c-2,9-9.34,14.76-18.76,14.76h-4.86l-2,9.24-.62,2.82h-6.5l-1,4.54H124.6l2.65-12.05H135c7.41,0,13.6-4.42,15.26-11.94,1-4.37-.23-7.51-2.35-9.54A16.19,16.19,0,0,1,147.56,86.82Z"/><path class="cls-3" d="M118.4,110.05l2.66-12h8a15.59,15.59,0,0,0,11.16-4.63,15.17,15.17,0,0,0,3.83-7.31,13.69,13.69,0,0,0,.32-3.55,9.1,9.1,0,0,0-1.13-4c-1.84-3.28-5.62-4.82-9-4.82H115.75l-8.19,36.38H118.4Zm6.36-28.25.17-.72h5.31a4,4,0,0,1,2.36.72,3.79,3.79,0,0,1,1.29,4.25A6.44,6.44,0,0,1,132,89.21a7.06,7.06,0,0,1-1.07.82,6.08,6.08,0,0,1-3.24,1H122.6Z"/><path class="cls-4" d="M130.4,85.21v-.06l0-.07a1,1,0,0,0,0-.39.86.86,0,0,0-.24,0h-2.47l-.65,2.79h.57A3.16,3.16,0,0,0,130.4,85.21Z"/><path class="cls-3" d="M128.47,52.42a44.05,44.05,0,1,0,44.06,44.05A44,44,0,0,0,128.47,52.42ZM153.75,95c-2,9-9.34,14.75-18.76,14.75h-4.86l-2,9.24-.62,2.82h-18.2l1-4.37.85-3.77h-8l1-4.37,8.18-36.38.63-2.8h21.34a14.21,14.21,0,0,1,11.06,5,12.08,12.08,0,0,1,2.37,5,12.93,12.93,0,0,1,3.82,3.17C153.21,85.41,155,89.2,153.75,95Z"/></svg>